<svg id="Camada_1" data-name="Camada 1" xmlns="http://www.w3.org/2000/svg" viewBox="0 0 24 24"><defs><style>.cls-1{fill:#ffffff;fill-rule:evenodd;}</style></defs><path class="cls-1" d="M9.13,17.48c0-1.73,0-3.45,0-5.17,0-.29-.08-.38-.37-.37-.54,0-1.08,0-1.61,0-.22,0-.3,0-.3-.28,0-1.08,0-2.15,0-3.23,0-.2.06-.27.27-.27.55,0,1.1,0,1.65,0,.32,0,.38-.09.38-.39,0-.82,0-1.64,0-2.45A4.74,4.74,0,0,1,10,2.59,3.79,3.79,0,0,1,13.1,1c1.27-.06,2.54,0,3.81,0,.18,0,.23.06.23.23,0,1.09,0,2.18,0,3.26,0,.2-.06.26-.25.25H15.06A1.2,1.2,0,0,0,13.71,6c-.05.64,0,1.29,0,1.94,0,.23.13.21.28.21.93,0,1.86,0,2.79,0,.27,0,.36.05.33.34-.12,1.08-.22,2.16-.31,3.24,0,.25-.13.3-.35.29h-2.2c-.53,0-.48-.08-.48.46q0,5.06,0,10.11c0,.36-.09.45-.44.44-1.26,0-2.52,0-3.77,0-.36,0-.42-.11-.41-.43C9.14,20.87,9.13,19.18,9.13,17.48Z"/></svg>