<svg xmlns="http://www.w3.org/2000/svg" viewBox="0 0 515 105.01"><defs><style>.cls-1{fill:#2f4462;}</style></defs><g id="Camada_2" data-name="Camada 2"><g id="Camada_1-2" data-name="Camada 1"><path class="cls-1" d="M329.41,105c-2.19-.29-4.4-.47-6.55-.9-10.73-2.16-19.72-7-25.36-16.8A38,38,0,0,1,293,72.69a50,50,0,0,1,1.44-21.28c4-12.91,13-20.73,25.9-23.55,16.78-3.65,32.05.06,45.31,11.19,1.4,1.18,2.63,2.57,3.95,3.86.32.31.67.6,1.27,1.15V0h20V102.88h-20V87.26c-1.65,1.63-3,3-4.44,4.37a49.65,49.65,0,0,1-26.51,12.48c-2.36.38-4.74.61-7.11.9Zm41.48-39.22h0c0-3.44,0-6.89,0-10.33a2.64,2.64,0,0,0-1.67-2.67c-9.69-4.79-19.85-7.72-30.76-7.59-6.09.07-12.05.82-17.57,3.67-5,2.6-8.43,6.51-9,12.21a46.09,46.09,0,0,0,.29,10.56,12.63,12.63,0,0,0,6.41,9.4,40.3,40.3,0,0,0,8.9,3.84c6.46,1.84,13.08,1.51,19.68.64a66.45,66.45,0,0,0,22.39-7.14,2.23,2.23,0,0,0,1.31-2.26C370.85,72.68,370.89,69.23,370.89,65.79Z"/><path class="cls-1" d="M176.87,103.87c-13.25-3.05-22-12.26-24.2-25.71a77.9,77.9,0,0,1-.84-11.83c-.11-12.22,0-24.44,0-36.66,0-.29,0-.57.05-1h20c0,.53.09,1.12.09,1.7,0,11.76-.07,23.51.05,35.26a46.32,46.32,0,0,0,1,9.09c1.3,6.18,5.35,9.64,11.51,10.75,9.57,1.73,18.71.12,27.55-3.6,2.57-1.07,5-2.46,7.51-3.65a2.46,2.46,0,0,0,1.49-2.58q-.06-22.58,0-45.16V28.71h20v74.15H221.08v-16c-1.88,2-3.42,3.73-5.12,5.34a44.45,44.45,0,0,1-27.54,12.54C180.82,104.94,179,104.36,176.87,103.87Z"/><path class="cls-1" d="M69.27,64.37V45.64h68.8v5.6c0,6.51.25,13-1.29,19.43-2.92,12.12-10.44,20.46-21.47,25.89a77.71,77.71,0,0,1-22.88,6.69,168.53,168.53,0,0,1-32.53,1.34c-10.37-.44-20.61-1.84-30.45-5.3-8-2.82-15.19-7-20.67-13.64A37.35,37.35,0,0,1,.59,65.49,89.07,89.07,0,0,1,.76,43.6C2.62,30.11,10,20.46,22,14.24c7.47-3.86,15.51-5.88,23.76-7.14a165.59,165.59,0,0,1,32.4-1.35c10.41.46,20.7,1.78,30.59,5.31,7.9,2.81,15,6.84,20.5,13.39a36.15,36.15,0,0,1,5.91,10.09,7.29,7.29,0,0,1,.28.94c0,.08,0,.18-.07.37h-9.61c-4.21,0-8.42.06-12.63-.05a4.39,4.39,0,0,1-2.6-1c-5-4.47-11-6.7-17.35-8.24C87.06,25,80.79,24.71,74.51,24.44a124.71,124.71,0,0,0-23.34.95c-6.72,1-13.27,2.55-19.15,6.15C24.86,35.92,21,42.26,21,50.7a87.18,87.18,0,0,0,.62,13.82c1.15,7.26,6,12,12.28,15.32a49.4,49.4,0,0,0,19.27,5.3c7.2.59,14.44.88,21.66.79a75.27,75.27,0,0,0,23.58-3.55c5.11-1.74,9.86-4.09,13.54-8.2a25.45,25.45,0,0,0,5-9.81Z"/><path class="cls-1" d="M496.81,70.82H423.09a13,13,0,0,0,4.52,8.7c3.5,3.08,7.81,4.38,12.27,5.08a75.3,75.3,0,0,0,10.29.86c7.61.13,15.22.06,22.84.07h1.5v17.36a5.65,5.65,0,0,1-.73.11c-9.26,0-18.54.08-27.8-.13-8.7-.2-17.23-1.57-25.18-5.33-10-4.73-15.51-12.69-16.74-23.66-.78-6.95-.73-13.85,1.21-20.61,3.11-10.88,10.54-17.82,20.7-22.16a61.5,61.5,0,0,1,22.08-4.49c8.21-.3,16.35.23,24.22,2.82s14.51,6.82,19.09,13.87a35.29,35.29,0,0,1,5.43,17.92C496.93,64.33,496.81,67.44,496.81,70.82ZM424.39,56.59h50.2a12.37,12.37,0,0,0-.28-1.21c-1.81-5.72-6-8.85-11.55-10.42a46.47,46.47,0,0,0-20.22-.72c-5.16.83-10,2.57-13.89,6.18A15.55,15.55,0,0,0,424.39,56.59Z"/><path class="cls-1" d="M258.8,28.73h19.93V102.9H258.8Z"/><path class="cls-1" d="M258.76,16.31V0h19.9V16.31Z"/><path class="cls-1" d="M506,85.44a8.9,8.9,0,0,1,9,8.92,9.08,9.08,0,0,1-9,8.9,8.8,8.8,0,0,1-8.83-8.93A8.62,8.62,0,0,1,506,85.44Zm-7.46,8.87a7.57,7.57,0,0,0,7.47,7.5,7.49,7.49,0,1,0,0-15A7.51,7.51,0,0,0,498.51,94.31Z"/><path class="cls-1" d="M503.19,89.42a12.56,12.56,0,0,1,2.37-.2,3.88,3.88,0,0,1,2.76.78,2.37,2.37,0,0,1,.76,1.82,2.52,2.52,0,0,1-1.81,2.44v0a2.4,2.4,0,0,1,1.41,1.93,14.59,14.59,0,0,0,.74,2.62h-1.28a11.78,11.78,0,0,1-.64-2.28c-.28-1.32-.79-1.82-1.91-1.86h-1.17v4.14h-1.23Zm1.23,4.35h1.26c1.32,0,2.16-.72,2.16-1.81s-.89-1.78-2.2-1.79a5.59,5.59,0,0,0-1.22.11Z"/></g></g></svg>