<svg xmlns="http://www.w3.org/2000/svg" viewBox="0 0 1000 330.46"><defs><style>.cls-1{fill:#2f4462;}.cls-2{fill:#af7b43;}</style></defs><g id="Camada_2" data-name="Camada 2"><g id="Camada_1-2" data-name="Camada 1"><path class="cls-1" d="M4.09,328.72a3,3,0,0,1-.94-2.22V269.56a3,3,0,0,1,.94-2.27,3.14,3.14,0,0,1,2.24-.89,3,3,0,0,1,3.17,3.16V326.5a3.11,3.11,0,0,1-.89,2.22,3,3,0,0,1-2.28.93A3.06,3.06,0,0,1,4.09,328.72Z"/><path class="cls-1" d="M50.57,328.76a3,3,0,0,1-.89-2.26V269.56a3.06,3.06,0,0,1,.89-2.27,3.29,3.29,0,0,1,4.73.24l39,50.87V269.56a3,3,0,0,1,.94-2.27,3.31,3.31,0,0,1,4.52,0,3.06,3.06,0,0,1,.89,2.27V326.5a3.07,3.07,0,0,1-.89,2.22,3,3,0,0,1-2.28.93,2.69,2.69,0,0,1-2.37-1L56,277.74V326.5a3.08,3.08,0,0,1-.9,2.22,3,3,0,0,1-2.28.93A3.08,3.08,0,0,1,50.57,328.76Z"/><path class="cls-1" d="M188.65,267.21a2.83,2.83,0,0,1,.77,2A4.71,4.71,0,0,1,189,271l-24.29,56.61a3,3,0,0,1-2.85,2,3.14,3.14,0,0,1-1.75-.44,3.38,3.38,0,0,1-1.18-1.58l-24.2-56.29a5.71,5.71,0,0,1-.49-2.11,2.63,2.63,0,0,1,.85-2.06,3.24,3.24,0,0,1,2.24-.77,3,3,0,0,1,2.94,2l21.59,51.35,21.51-51.18a3.56,3.56,0,0,1,1.23-1.7,3.41,3.41,0,0,1,1.95-.49A2.75,2.75,0,0,1,188.65,267.21Z"/><path class="cls-1" d="M223.93,328.72a3,3,0,0,1-.94-2.22V269.56a3,3,0,0,1,.94-2.27,3.14,3.14,0,0,1,2.24-.89h38.22a3.12,3.12,0,0,1,2.28.89,3,3,0,0,1,.9,2.19,2.81,2.81,0,0,1-.9,2.14,3.17,3.17,0,0,1-2.28.85h-35v22.36h25.5a3.13,3.13,0,0,1,2.29.89,3,3,0,0,1,.89,2.19,2.9,2.9,0,0,1-.93,2.18,3.14,3.14,0,0,1-2.25.89h-25.5v22.6h35a3.17,3.17,0,0,1,2.28.85,2.83,2.83,0,0,1,.9,2.15,2.94,2.94,0,0,1-.9,2.18,3.08,3.08,0,0,1-2.28.89H226.17A3.06,3.06,0,0,1,223.93,328.72Z"/><path class="cls-1" d="M309.08,327.18a19.4,19.4,0,0,1-8.6-8.86,2.64,2.64,0,0,1-.32-1.3,2.44,2.44,0,0,1,.85-1.9,3.33,3.33,0,0,1,2.33-.77,3.43,3.43,0,0,1,1.83.52,3.15,3.15,0,0,1,1.26,1.5,13.69,13.69,0,0,0,6.24,5.87,21.9,21.9,0,0,0,10.14,2.23q6.69,0,10.76-3.2a10.73,10.73,0,0,0,4.07-8.95,11.18,11.18,0,0,0-3.79-8.58q-3.78-3.48-11.36-4.46-9.47-1.12-14.88-5.87a14.85,14.85,0,0,1-5.41-11.62,14.31,14.31,0,0,1,2.64-8.55,17,17,0,0,1,7.34-5.67,27.08,27.08,0,0,1,10.63-2,22.29,22.29,0,0,1,11.33,2.83,21.43,21.43,0,0,1,7.66,7.37,3.58,3.58,0,0,1,.57,1.95,2.74,2.74,0,0,1-1.47,2.43,3.31,3.31,0,0,1-1.47.32,3.39,3.39,0,0,1-1.67-.44,3.62,3.62,0,0,1-1.26-1.26q-4.56-7.12-13.77-7.21-6.6,0-10.43,2.76a9.09,9.09,0,0,0-3.83,7.85q0,9.48,15.4,11.5Q334,295.16,339,299.85t5,12.39a17.22,17.22,0,0,1-2.77,9.8,17.55,17.55,0,0,1-7.58,6.28,26.14,26.14,0,0,1-10.76,2.14A28.07,28.07,0,0,1,309.08,327.18Z"/><path class="cls-1" d="M424.26,267.21a2.85,2.85,0,0,1,.81,2.11,2.74,2.74,0,0,1-.81,2,2.87,2.87,0,0,1-2.12.81H402.75V326.5a3.08,3.08,0,0,1-.9,2.22,3.21,3.21,0,0,1-4.52,0,3,3,0,0,1-.94-2.22V272.15H377.08a2.87,2.87,0,0,1-2.12-.81,2.74,2.74,0,0,1-.81-2,2.78,2.78,0,0,1,2.93-2.92h45.06A2.87,2.87,0,0,1,424.26,267.21Z"/><path class="cls-1" d="M459.26,328.72a3,3,0,0,1-.94-2.22V269.56a3,3,0,0,1,.94-2.27,3.31,3.31,0,0,1,4.52,0,3.07,3.07,0,0,1,.9,2.27V326.5a3.08,3.08,0,0,1-.9,2.22,3.21,3.21,0,0,1-4.52,0Z"/><path class="cls-1" d="M567.59,267.29a3.07,3.07,0,0,1,.9,2.27V326.5a3.08,3.08,0,0,1-.9,2.22,2.94,2.94,0,0,1-2.2.93,3.16,3.16,0,0,1-2.32-.93,3,3,0,0,1-.94-2.22V280.65l-22.65,46a3.12,3.12,0,0,1-2.77,1.54,3,3,0,0,1-2.93-1.95L511.2,281.38V326.5a3.11,3.11,0,0,1-.89,2.22,3,3,0,0,1-2.28.93,3.1,3.1,0,0,1-2.25-.93,3,3,0,0,1-.93-2.22V269.56a3,3,0,0,1,.93-2.27,3.18,3.18,0,0,1,2.25-.89,3.14,3.14,0,0,1,2.85,1.62L537,319.53,562.54,268a3.13,3.13,0,0,1,2.85-1.62A3,3,0,0,1,567.59,267.29Z"/><path class="cls-1" d="M609.6,328.72a3,3,0,0,1-.94-2.22V269.56a3,3,0,0,1,.94-2.27,3.14,3.14,0,0,1,2.24-.89h38.21a3.13,3.13,0,0,1,2.29.89,3,3,0,0,1,.89,2.19,2.84,2.84,0,0,1-.89,2.14,3.18,3.18,0,0,1-2.29.85H615v22.36h25.5a3.12,3.12,0,0,1,2.28.89,3,3,0,0,1,.9,2.19,2.9,2.9,0,0,1-.94,2.18,3.1,3.1,0,0,1-2.24.89H615v22.6h35a3.18,3.18,0,0,1,2.29.85,2.86,2.86,0,0,1,.89,2.15,3,3,0,0,1-.89,2.18,3.09,3.09,0,0,1-2.29.89H611.84A3.06,3.06,0,0,1,609.6,328.72Z"/><path class="cls-1" d="M689.82,328.76a3,3,0,0,1-.9-2.26V269.56a3.19,3.19,0,0,1,5.62-2l39,50.87V269.56a3,3,0,0,1,.94-2.27,3.31,3.31,0,0,1,4.52,0,3.07,3.07,0,0,1,.9,2.27V326.5a3.08,3.08,0,0,1-.9,2.22,3,3,0,0,1-2.28.93,2.67,2.67,0,0,1-2.36-1l-39-50.86V326.5a3.08,3.08,0,0,1-.9,2.22,3.31,3.31,0,0,1-4.56,0Z"/><path class="cls-1" d="M823.21,267.21a2.85,2.85,0,0,1,.81,2.11,2.74,2.74,0,0,1-.81,2,2.89,2.89,0,0,1-2.12.81H801.7V326.5a3.08,3.08,0,0,1-.9,2.22,3.21,3.21,0,0,1-4.52,0,3,3,0,0,1-.94-2.22V272.15H776a2.87,2.87,0,0,1-2.12-.81,2.74,2.74,0,0,1-.82-2A2.79,2.79,0,0,1,776,266.4h45.06A2.89,2.89,0,0,1,823.21,267.21Z"/><path class="cls-1" d="M870,326.25a30.29,30.29,0,0,1-11.61-11.62,35,35,0,0,1,0-33.25A30.46,30.46,0,0,1,870,269.8a35.17,35.17,0,0,1,33.37,0A30.36,30.36,0,0,1,915,281.38a35,35,0,0,1,0,33.25,30.18,30.18,0,0,1-11.65,11.62,35.17,35.17,0,0,1-33.37,0ZM900.09,321a25.22,25.22,0,0,0,9.41-9.52,28.14,28.14,0,0,0,0-26.89,25.2,25.2,0,0,0-9.41-9.51,27.64,27.64,0,0,0-26.89,0,25.2,25.2,0,0,0-9.41,9.51,28.07,28.07,0,0,0,0,26.89A25.22,25.22,0,0,0,873.2,321a27.71,27.71,0,0,0,26.89,0Z"/><path class="cls-1" d="M962,327.18a19.35,19.35,0,0,1-8.6-8.86,2.54,2.54,0,0,1-.33-1.3,2.45,2.45,0,0,1,.86-1.9,3.3,3.3,0,0,1,2.32-.77,3.47,3.47,0,0,1,1.84.52,3.15,3.15,0,0,1,1.26,1.5,13.71,13.71,0,0,0,6.23,5.87,22,22,0,0,0,10.15,2.23q6.68,0,10.75-3.2a10.72,10.72,0,0,0,4.08-8.95,11.21,11.21,0,0,0-3.79-8.58q-3.79-3.48-11.37-4.46-9.45-1.12-14.87-5.87a14.86,14.86,0,0,1-5.42-11.62,14.25,14.25,0,0,1,2.65-8.55,17,17,0,0,1,7.33-5.67,27.13,27.13,0,0,1,10.64-2,22.25,22.25,0,0,1,11.32,2.83,21.35,21.35,0,0,1,7.66,7.37,3.58,3.58,0,0,1,.57,1.95,2.75,2.75,0,0,1-1.46,2.43,3.46,3.46,0,0,1-3.14-.12,3.46,3.46,0,0,1-1.26-1.26q-4.58-7.12-13.77-7.21-6.6,0-10.43,2.76a9.06,9.06,0,0,0-3.83,7.85q0,9.48,15.4,11.5,10.1,1.47,15.07,6.16t5,12.39a17.14,17.14,0,0,1-2.77,9.8,17.49,17.49,0,0,1-7.58,6.28,26.09,26.09,0,0,1-10.75,2.14A28.07,28.07,0,0,1,962,327.18Z"/><path class="cls-2" d="M0,246.7a2.62,2.62,0,0,1,2.53-2.62,31.5,31.5,0,0,0,9.69-1.53,10.9,10.9,0,0,0,6.1-5.23,23,23,0,0,0,2.27-9.25q.35-5.58.35-13.62V39.93q0-8-.35-13.61a21.54,21.54,0,0,0-2.27-9.07A11.9,11.9,0,0,0,12.22,12a29,29,0,0,0-9.7-1.7A2.62,2.62,0,0,1,0,7.7v0A2.62,2.62,0,0,1,2.62,5H96.85a2.62,2.62,0,0,1,2.63,2.62v0A2.61,2.61,0,0,1,97,10.31,29.51,29.51,0,0,0,87.44,12a11.85,11.85,0,0,0-6.29,5.24,21.54,21.54,0,0,0-2.27,9.07q-.34,5.58-.35,13.61V238a2.62,2.62,0,0,0,2.63,2.62h72.42q8.37,0,13.09-4.19a23.55,23.55,0,0,0,6.8-10.82,58.37,58.37,0,0,0,2.45-15.18q.29-7.22.34-14.33a2.61,2.61,0,0,1,2.61-2.6h5.24a2.63,2.63,0,0,1,2.63,2.63v50.6a2.63,2.63,0,0,1-2.63,2.62H2.62A2.62,2.62,0,0,1,0,246.74Z"/><path class="cls-2" d="M212.57,246.69a2.61,2.61,0,0,1,2.51-2.61,29,29,0,0,0,9.7-1.7,11.88,11.88,0,0,0,6.11-5.24,22.09,22.09,0,0,0,2.27-9.25c.23-3.84.35-8.31.35-13.44V39.93q0-8-.35-13.61a21.69,21.69,0,0,0-2.27-9.07A11.92,11.92,0,0,0,224.78,12a29,29,0,0,0-9.7-1.7,2.61,2.61,0,0,1-2.51-2.61v0A2.62,2.62,0,0,1,215.19,5h94.23A2.62,2.62,0,0,1,312,7.65v0a2.61,2.61,0,0,1-2.49,2.61A29.58,29.58,0,0,0,300,12a11.83,11.83,0,0,0-6.28,5.24,21.54,21.54,0,0,0-2.27,9.07q-.36,5.58-.35,13.61V214.45c0,5.13.11,9.6.35,13.44a21.94,21.94,0,0,0,2.27,9.25,11.78,11.78,0,0,0,6.28,5.24,29.34,29.34,0,0,0,9.55,1.69,2.62,2.62,0,0,1,2.49,2.62v.05a2.62,2.62,0,0,1-2.62,2.62H215.19a2.62,2.62,0,0,1-2.62-2.62Z"/><path class="cls-2" d="M806.28,246.69a2.62,2.62,0,0,1,2.52-2.61,29,29,0,0,0,9.7-1.7,11.92,11.92,0,0,0,6.11-5.24,22.24,22.24,0,0,0,2.27-9.25c.22-3.84.34-8.31.34-13.44V39.93q0-8-.34-13.61a21.84,21.84,0,0,0-2.27-9.07A12,12,0,0,0,818.5,12a29,29,0,0,0-9.7-1.7,2.62,2.62,0,0,1-2.52-2.61v0A2.62,2.62,0,0,1,808.91,5H990.4A2.62,2.62,0,0,1,993,7.65v50.6a2.62,2.62,0,0,1-2.62,2.63h-5.25a2.61,2.61,0,0,1-2.61-2.6q0-7.11-.34-14.33a59.11,59.11,0,0,0-2.44-15.19A23.8,23.8,0,0,0,973,17.94q-4.71-4.19-13.09-4.19H887.44a2.62,2.62,0,0,0-2.62,2.63v104.7a2.62,2.62,0,0,0,2.62,2.62H925q5.92,0,9.07-3.31a20.82,20.82,0,0,0,4.71-8.38,41.62,41.62,0,0,0,1.75-11.17q.13-4.77.16-9.45a2.61,2.61,0,0,1,2.62-2.59h5.24a2.62,2.62,0,0,1,2.62,2.62v73.29a2.62,2.62,0,0,1-2.62,2.62h-5.24a2.61,2.61,0,0,1-2.62-2.59q0-4.67-.16-9.45a41.69,41.69,0,0,0-1.75-11.17,20.85,20.85,0,0,0-4.71-8.37q-3.13-3.31-9.07-3.32H887.44a2.62,2.62,0,0,0-2.62,2.62V238a2.62,2.62,0,0,0,2.62,2.62h79.4q8.38,0,13.09-4.19a23.65,23.65,0,0,0,6.81-10.82,58.38,58.38,0,0,0,2.44-15.18q.29-7.23.34-14.33a2.61,2.61,0,0,1,2.61-2.6h5.25a2.62,2.62,0,0,1,2.62,2.63v50.6a2.62,2.62,0,0,1-2.62,2.62H808.91a2.63,2.63,0,0,1-2.63-2.62Z"/><path class="cls-2" d="M558.28,5H497.21a2.62,2.62,0,0,0-2.62,2.62h0a2.62,2.62,0,0,0,2.59,2.63,130.53,130.53,0,0,1,13.64.68q5.76.7,8.38,3.67c1.74,2,2.73,4.94,3,8.9s.35,9.42.35,16.4V152.56a2.62,2.62,0,0,1-4.71,1.58L425.83,33q-2.81-3.84-7.51-9.07a69.41,69.41,0,0,0-11-9.78A64.89,64.89,0,0,0,393,6.42a47.61,47.61,0,0,0-17.46-3.14q-16.76,0-25.83,9.43l0,0a8.08,8.08,0,0,0-.57,10.31l46,63.43L521.72,253.56a2.64,2.64,0,0,0,2.09,1h6.55A2.62,2.62,0,0,0,533,252v-212q0-10.47.53-16.4t3.14-8.9c1.74-2,4.48-3.2,8.2-3.67a125.1,125.1,0,0,1,13.46-.68,2.64,2.64,0,0,0,2.6-2.63h0A2.62,2.62,0,0,0,558.28,5Z"/><path class="cls-2" d="M401.59,244.11a125.1,125.1,0,0,1-13.46-.68q-5.6-.7-8.2-3.67t-3.14-8.9q-.53-5.93-.53-16.41v-132L365.79,66.33V214.45q0,10.49-.35,16.41t-3,8.9q-2.62,3-8.38,3.67a127.81,127.81,0,0,1-13.64.68,2.63,2.63,0,0,0,0,5.25h61.07a2.63,2.63,0,0,0,2.63-2.62h0A2.64,2.64,0,0,0,401.59,244.11Z"/><path class="cls-2" d="M773.11,211.65l-1.56,1.93a92.56,92.56,0,0,1-15.35,14.66,101,101,0,0,1-21.12,12.39,62.47,62.47,0,0,1-25.48,5.24,52.1,52.1,0,0,1-23.91-5.76q-11.36-5.76-19.72-19.55T652.7,183.91q-4.89-22.84-4.88-56.72,0-34.2,4.71-56.89t12.74-36.48q8-13.79,18.32-19.54a44.34,44.34,0,0,1,15-5.24l-6.84-9a118.38,118.38,0,0,0-38.5,8.17,96.29,96.29,0,0,0-35.6,24.61q-14.85,16.23-22.87,40t-8,54.45q0,30.72,8.21,54.45t23.56,40a99.26,99.26,0,0,0,37.35,24.61q22,8.37,49.56,8.38a98.64,98.64,0,0,0,30.89-4.54A76.28,76.28,0,0,0,759.69,238a56.3,56.3,0,0,0,14.83-16.92,44.52,44.52,0,0,0,3.15-7A2.63,2.63,0,0,0,773.11,211.65Z"/><path class="cls-2" d="M708.84.18a152.49,152.49,0,0,1,17.51,2.23,80.44,80.44,0,0,1,25.48,9.25,56.43,56.43,0,0,1,18.85,17.45Q778,39.94,778,56.69c0,.36,0,.72,0,1.1-.92,10.75-15,14.37-21.5,5.74Z"/><path class="cls-1" d="M0,246.7a2.62,2.62,0,0,1,2.53-2.62,31.5,31.5,0,0,0,9.69-1.53,10.9,10.9,0,0,0,6.1-5.23,23,23,0,0,0,2.27-9.25q.35-5.58.35-13.62V39.93q0-8-.35-13.61a21.54,21.54,0,0,0-2.27-9.07A11.9,11.9,0,0,0,12.22,12a29,29,0,0,0-9.7-1.7A2.62,2.62,0,0,1,0,7.7v0A2.62,2.62,0,0,1,2.62,5H96.85a2.62,2.62,0,0,1,2.63,2.62v0A2.61,2.61,0,0,1,97,10.31,29.51,29.51,0,0,0,87.44,12a11.85,11.85,0,0,0-6.29,5.24,21.54,21.54,0,0,0-2.27,9.07q-.34,5.58-.35,13.61V238a2.62,2.62,0,0,0,2.63,2.62h72.42q8.37,0,13.09-4.19a23.55,23.55,0,0,0,6.8-10.82,58.37,58.37,0,0,0,2.45-15.18q.29-7.22.34-14.33a2.61,2.61,0,0,1,2.61-2.6h5.24a2.63,2.63,0,0,1,2.63,2.63v50.6a2.63,2.63,0,0,1-2.63,2.62H2.62A2.62,2.62,0,0,1,0,246.74Z"/><path class="cls-1" d="M212.57,246.69a2.61,2.61,0,0,1,2.51-2.61,29,29,0,0,0,9.7-1.7,11.88,11.88,0,0,0,6.11-5.24,22.09,22.09,0,0,0,2.27-9.25c.23-3.84.35-8.31.35-13.44V39.93q0-8-.35-13.61a21.69,21.69,0,0,0-2.27-9.07A11.92,11.92,0,0,0,224.78,12a29,29,0,0,0-9.7-1.7,2.61,2.61,0,0,1-2.51-2.61v0A2.62,2.62,0,0,1,215.19,5h94.23A2.62,2.62,0,0,1,312,7.65v0a2.61,2.61,0,0,1-2.49,2.61A29.58,29.58,0,0,0,300,12a11.83,11.83,0,0,0-6.28,5.24,21.54,21.54,0,0,0-2.27,9.07q-.36,5.58-.35,13.61V214.45c0,5.13.11,9.6.35,13.44a21.94,21.94,0,0,0,2.27,9.25,11.78,11.78,0,0,0,6.28,5.24,29.34,29.34,0,0,0,9.55,1.69,2.62,2.62,0,0,1,2.49,2.62v.05a2.62,2.62,0,0,1-2.62,2.62H215.19a2.62,2.62,0,0,1-2.62-2.62Z"/><path class="cls-1" d="M806.28,246.69a2.62,2.62,0,0,1,2.52-2.61,29,29,0,0,0,9.7-1.7,11.92,11.92,0,0,0,6.11-5.24,22.24,22.24,0,0,0,2.27-9.25c.22-3.84.34-8.31.34-13.44V39.93q0-8-.34-13.61a21.84,21.84,0,0,0-2.27-9.07A12,12,0,0,0,818.5,12a29,29,0,0,0-9.7-1.7,2.62,2.62,0,0,1-2.52-2.61v0A2.62,2.62,0,0,1,808.91,5H990.4A2.62,2.62,0,0,1,993,7.65v50.6a2.62,2.62,0,0,1-2.62,2.63h-5.25a2.61,2.61,0,0,1-2.61-2.6q0-7.11-.34-14.33a59.11,59.11,0,0,0-2.44-15.19A23.8,23.8,0,0,0,973,17.94q-4.71-4.19-13.09-4.19H887.44a2.62,2.62,0,0,0-2.62,2.63v104.7a2.62,2.62,0,0,0,2.62,2.62H925q5.92,0,9.07-3.31a20.82,20.82,0,0,0,4.71-8.38,41.62,41.62,0,0,0,1.75-11.17q.13-4.77.16-9.45a2.61,2.61,0,0,1,2.62-2.59h5.24a2.62,2.62,0,0,1,2.62,2.62v73.29a2.62,2.62,0,0,1-2.62,2.62h-5.24a2.61,2.61,0,0,1-2.62-2.59q0-4.67-.16-9.45a41.69,41.69,0,0,0-1.75-11.17,20.85,20.85,0,0,0-4.71-8.37q-3.13-3.31-9.07-3.32H887.44a2.62,2.62,0,0,0-2.62,2.62V238a2.62,2.62,0,0,0,2.62,2.62h79.4q8.38,0,13.09-4.19a23.65,23.65,0,0,0,6.81-10.82,58.38,58.38,0,0,0,2.44-15.18q.29-7.23.34-14.33a2.61,2.61,0,0,1,2.61-2.6h5.25a2.62,2.62,0,0,1,2.62,2.63v50.6a2.62,2.62,0,0,1-2.62,2.62H808.91a2.63,2.63,0,0,1-2.63-2.62Z"/><path class="cls-1" d="M558.28,5H497.21a2.62,2.62,0,0,0-2.62,2.62h0a2.62,2.62,0,0,0,2.59,2.63,130.53,130.53,0,0,1,13.64.68q5.76.7,8.38,3.67c1.74,2,2.73,4.94,3,8.9s.35,9.42.35,16.4V152.56a2.62,2.62,0,0,1-4.71,1.58L425.83,33q-2.81-3.84-7.51-9.07a69.41,69.41,0,0,0-11-9.78A64.89,64.89,0,0,0,393,6.42a47.61,47.61,0,0,0-17.46-3.14q-16.76,0-25.83,9.43l0,0a8.08,8.08,0,0,0-.57,10.31l46,63.43L521.72,253.56a2.64,2.64,0,0,0,2.09,1h6.55A2.62,2.62,0,0,0,533,252v-212q0-10.47.53-16.4t3.14-8.9c1.74-2,4.48-3.2,8.2-3.67a125.1,125.1,0,0,1,13.46-.68,2.64,2.64,0,0,0,2.6-2.63h0A2.62,2.62,0,0,0,558.28,5Z"/><path class="cls-1" d="M401.59,244.11a125.1,125.1,0,0,1-13.46-.68q-5.6-.7-8.2-3.67t-3.14-8.9q-.53-5.93-.53-16.41v-132L365.79,66.33V214.45q0,10.49-.35,16.41t-3,8.9q-2.62,3-8.38,3.67a127.81,127.81,0,0,1-13.64.68,2.63,2.63,0,0,0,0,5.25h61.07a2.63,2.63,0,0,0,2.63-2.62h0A2.64,2.64,0,0,0,401.59,244.11Z"/><path class="cls-1" d="M773.11,211.65l-1.56,1.93a92.56,92.56,0,0,1-15.35,14.66,101,101,0,0,1-21.12,12.39,62.47,62.47,0,0,1-25.48,5.24,52.1,52.1,0,0,1-23.91-5.76q-11.36-5.76-19.72-19.55T652.7,183.91q-4.89-22.84-4.88-56.72,0-34.2,4.71-56.89t12.74-36.48q8-13.79,18.32-19.54a44.34,44.34,0,0,1,15-5.24l-6.84-9a118.38,118.38,0,0,0-38.5,8.17,96.29,96.29,0,0,0-35.6,24.61q-14.85,16.23-22.87,40t-8,54.45q0,30.72,8.21,54.45t23.56,40a99.26,99.26,0,0,0,37.35,24.61q22,8.37,49.56,8.38a98.64,98.64,0,0,0,30.89-4.54A76.28,76.28,0,0,0,759.69,238a56.3,56.3,0,0,0,14.83-16.92,44.52,44.52,0,0,0,3.15-7A2.63,2.63,0,0,0,773.11,211.65Z"/><path class="cls-1" d="M708.84.18a152.49,152.49,0,0,1,17.51,2.23,80.44,80.44,0,0,1,25.48,9.25,56.43,56.43,0,0,1,18.85,17.45Q778,39.94,778,56.69c0,.36,0,.72,0,1.1-.92,10.75-15,14.37-21.5,5.74Z"/></g></g></svg>