<svg id="Camada_1" data-name="Camada 1" xmlns="http://www.w3.org/2000/svg" viewBox="0 0 24 24"><defs><style>.cls-1{fill:#ffffff;fill-rule:evenodd;}</style></defs><path class="cls-1" d="M12.2,1A10.72,10.72,0,0,0,3,17.25L1.09,23,7,21.1A10.72,10.72,0,1,0,12.2,1Zm0,19.64a8.9,8.9,0,0,1-4.91-1.48l-3.43,1.1L5,17a8.92,8.92,0,1,1,7.22,3.69Zm5-6.49c-.27-.15-1.59-.86-1.83-1s-.43-.15-.62.12-.74.86-.91,1-.33.19-.6,0A7.7,7.7,0,0,1,11.12,13,8.16,8.16,0,0,1,9.66,11a.4.4,0,0,1,.15-.55c.12-.12.28-.31.42-.47a1.4,1.4,0,0,0,.29-.44.51.51,0,0,0,0-.48C10.46,8.92,10,7.55,9.75,7s-.44-.47-.6-.47l-.52,0a1,1,0,0,0-.74.32A3.06,3.06,0,0,0,6.85,9a5.28,5.28,0,0,0,1,2.87,11.16,11.16,0,0,0,4.51,4.31c2.74,1.2,2.76.83,3.26.81a2.82,2.82,0,0,0,1.9-1.24,2.19,2.19,0,0,0,.2-1.29C17.67,14.37,17.49,14.3,17.22,14.15Z"/></svg>